<svg width="20" height="20" viewBox="0 0 20 20" fill="none" xmlns="http://www.w3.org/2000/svg">
<path d="M10.0004 0.400024C4.72039 0.400024 0.400391 4.72002 0.400391 10C0.400391 15.28 4.72039 19.6 10.0004 19.6C15.2804 19.6 19.6004 15.28 19.6004 10C19.6004 4.72002 15.2804 0.400024 10.0004 0.400024ZM10.0004 3.28002C11.5835 3.28002 12.8804 4.57695 12.8804 6.16002C12.8804 7.7431 11.5835 9.04002 10.0004 9.04002C8.41731 9.04002 7.12039 7.7431 7.12039 6.16002C7.12039 4.57695 8.41731 3.28002 10.0004 3.28002ZM10.0004 17.1446C8.18106 17.1446 6.52617 16.4285 5.28903 15.2859C4.52074 14.5762 4.20073 13.3869 4.99234 12.7033C6.20598 11.6554 8.60094 11.0939 10.0004 11.0939C11.3989 11.0939 13.7915 11.6546 15.006 12.7012C15.7998 13.3853 15.4787 14.5769 14.7083 15.2871C13.4715 16.4272 11.818 17.1446 10.0004 17.1446Z" fill="white"/>
</svg>
